<svg xmlns="http://www.w3.org/2000/svg" viewBox="0 0 1600 900" width="1600" height="900">
  <defs>
    <linearGradient id="bg" x1="0" y1="0" x2="1" y2="1">
      <stop offset="0%" stop-color="#e0f2fe" />
      <stop offset="55%" stop-color="#bae6fd" />
      <stop offset="100%" stop-color="#cbd5e1" />
    </linearGradient>
    <pattern id="grid" width="48" height="48" patternUnits="userSpaceOnUse">
      <path d="M48 0 L0 0 0 48" fill="none" stroke="#0f172a" stroke-opacity="0.08" stroke-width="1" />
    </pattern>
  </defs>

  <rect width="1600" height="900" fill="url(#bg)" />
  <rect width="1600" height="900" fill="url(#grid)" />

  <rect x="150" y="520" width="260" height="250" rx="8" fill="#94a3b8" fill-opacity="0.45" />
  <rect x="440" y="470" width="300" height="300" rx="8" fill="#64748b" fill-opacity="0.42" />
  <rect x="780" y="400" width="330" height="370" rx="8" fill="#475569" fill-opacity="0.43" />
  <rect x="1140" y="540" width="260" height="230" rx="8" fill="#334155" fill-opacity="0.38" />

  <path d="M1090 210 L1240 120 L1390 210 L1390 240 L1090 240 Z" fill="#0f172a" fill-opacity="0.12" />
  <rect x="1230" y="180" width="16" height="300" rx="8" fill="#0f172a" fill-opacity="0.15" />
  <path d="M1030 350 C1170 300 1300 300 1450 355" stroke="#0f172a" stroke-opacity="0.18" stroke-width="10" fill="none" />

  <rect x="120" y="120" width="420" height="66" rx="33" fill="#0369a1" fill-opacity="0.15" />
  <circle cx="156" cy="153" r="8" fill="#0ea5e9" />
  <rect x="176" y="145" width="340" height="16" rx="8" fill="#0369a1" fill-opacity="0.45" />
</svg>
