<svg width="1600" height="900" viewBox="0 0 1600 900" fill="none" xmlns="http://www.w3.org/2000/svg">
  <defs>
    <linearGradient id="bg" x1="0" y1="0" x2="1600" y2="900" gradientUnits="userSpaceOnUse">
      <stop stop-color="#E0F2FE"/>
      <stop offset="0.5" stop-color="#F8FAFC"/>
      <stop offset="1" stop-color="#E2E8F0"/>
    </linearGradient>
    <linearGradient id="card" x1="340" y1="180" x2="1260" y2="720" gradientUnits="userSpaceOnUse">
      <stop stop-color="#0EA5E9" stop-opacity="0.16"/>
      <stop offset="1" stop-color="#6366F1" stop-opacity="0.2"/>
    </linearGradient>
  </defs>
  <rect width="1600" height="900" fill="url(#bg)"/>
  <circle cx="1370" cy="150" r="170" fill="#BAE6FD" fill-opacity="0.5"/>
  <circle cx="240" cy="760" r="210" fill="#C7D2FE" fill-opacity="0.45"/>
  <rect x="340" y="180" width="920" height="540" rx="28" fill="url(#card)" stroke="#CBD5E1" stroke-width="2"/>
  <rect x="410" y="270" width="340" height="24" rx="12" fill="#E2E8F0"/>
  <rect x="410" y="320" width="760" height="34" rx="12" fill="#0F172A" fill-opacity="0.85"/>
  <rect x="410" y="374" width="640" height="22" rx="11" fill="#334155" fill-opacity="0.8"/>
  <rect x="410" y="438" width="460" height="18" rx="9" fill="#64748B" fill-opacity="0.6"/>
  <rect x="410" y="470" width="700" height="18" rx="9" fill="#64748B" fill-opacity="0.45"/>
  <rect x="410" y="502" width="520" height="18" rx="9" fill="#64748B" fill-opacity="0.35"/>
  <rect x="410" y="592" width="180" height="46" rx="23" fill="#0EA5E9" fill-opacity="0.85"/>
  <text x="800" y="658" text-anchor="middle" fill="#0F172A" fill-opacity="0.7" font-size="40" font-family="Arial, Helvetica, sans-serif">TatvaOps Blog</text>
</svg>
